<mxfile><diagram id="dxQ1FcAy5Z-NgB3lELAi" name="Page-1"><mxGraphModel dx="2516" dy="1080" grid="1" gridSize="10" guides="1" tooltips="1" connect="1" arrows="1" fold="1" page="1" pageScale="1" pageWidth="850" pageHeight="1100" math="0" shadow="0"><root><mxCell id="0"/><mxCell id="1" parent="0"/><mxCell id="7" value="Business Object" style="shape=folder;fontStyle=1;tabWidth=110;tabHeight=30;tabPosition=left;html=1;boundedLbl=1;labelInHeader=1;container=1;collapsible=0;recursiveResize=0;" parent="1" vertex="1"><mxGeometry x="30" y="30" width="330" height="330" as="geometry"/></mxCell><mxCell id="8" value="export&lt;br&gt;- Export_to_json&lt;br&gt;- Export_to_csv&lt;br&gt;- Export_to_csv" style="html=1;" parent="7" vertex="1"><mxGeometry width="110" height="70" relative="1" as="geometry"><mxPoint x="20" y="50" as="offset"/></mxGeometry></mxCell><mxCell id="9" value="Impor&lt;br&gt;- import_json" style="html=1;" parent="7" vertex="1"><mxGeometry x="160" y="50" width="110" height="70" as="geometry"/></mxCell><mxCell id="10" value="règle_generation&lt;br&gt;- modality&lt;br&gt;- type&lt;br&gt;- meta_type" style="html=1;" parent="7" vertex="1"><mxGeometry x="20" y="169.9999999999999" width="110" height="70" as="geometry"/></mxCell><mxCell id="40" value="&amp;lt;&amp;lt;generation_donnee&amp;gt;&amp;gt;&lt;br&gt;generation_donnee" style="html=1;" parent="7" vertex="1"><mxGeometry x="160" y="170" width="130" height="80" as="geometry"/></mxCell><mxCell id="13" value="DAO" style="shape=folder;fontStyle=1;tabWidth=110;tabHeight=30;tabPosition=left;html=1;boundedLbl=1;labelInHeader=1;container=1;collapsible=0;recursiveResize=0;" parent="1" vertex="1"><mxGeometry x="-10" y="550" width="340" height="330" as="geometry"/></mxCell><mxCell id="14" value="data_dao" style="html=1;" parent="13" vertex="1"><mxGeometry width="120" height="50" relative="1" as="geometry"><mxPoint x="20" y="50" as="offset"/></mxGeometry></mxCell><mxCell id="18" value="meta_dao" style="html=1;" parent="13" vertex="1"><mxGeometry x="184.99999999999977" y="49.999999999999886" width="120" height="50" as="geometry"/></mxCell><mxCell id="19" value="db_connection" style="html=1;" parent="13" vertex="1"><mxGeometry x="114.99999999999977" y="169.9999999999999" width="120" height="50" as="geometry"/></mxCell><mxCell id="20" value="modality_dao" style="html=1;" parent="13" vertex="1"><mxGeometry x="204.99999999999977" y="269.9999999999999" width="120" height="50" as="geometry"/></mxCell><mxCell id="21" value="typ_dao" style="html=1;" parent="13" vertex="1"><mxGeometry x="24.999999999999773" y="269.9999999999999" width="120" height="50" as="geometry"/></mxCell><mxCell id="27" value="imports" style="endArrow=open;startArrow=none;endFill=0;startFill=0;endSize=8;html=1;verticalAlign=bottom;dashed=1;labelBackgroundColor=none;" parent="13" target="19" edge="1"><mxGeometry width="160" relative="1" as="geometry"><mxPoint x="55" y="110" as="sourcePoint"/><mxPoint x="215" y="110" as="targetPoint"/></mxGeometry></mxCell><mxCell id="28" value="imports" style="endArrow=open;startArrow=none;endFill=0;startFill=0;endSize=8;html=1;verticalAlign=bottom;dashed=1;labelBackgroundColor=none;exitX=0.5;exitY=1;exitDx=0;exitDy=0;" parent="13" source="18" target="19" edge="1"><mxGeometry width="160" relative="1" as="geometry"><mxPoint x="195" y="140" as="sourcePoint"/><mxPoint x="355" y="140" as="targetPoint"/></mxGeometry></mxCell><mxCell id="29" value="imports&amp;nbsp;" style="endArrow=open;startArrow=none;endFill=0;startFill=0;endSize=8;html=1;verticalAlign=bottom;dashed=1;labelBackgroundColor=none;exitX=0.5;exitY=0;exitDx=0;exitDy=0;" parent="13" source="21" target="19" edge="1"><mxGeometry width="160" relative="1" as="geometry"><mxPoint x="65" y="220" as="sourcePoint"/><mxPoint x="225" y="220" as="targetPoint"/></mxGeometry></mxCell><mxCell id="30" value="imports" style="endArrow=open;startArrow=none;endFill=0;startFill=0;endSize=8;html=1;verticalAlign=bottom;dashed=1;labelBackgroundColor=none;exitX=0.5;exitY=0;exitDx=0;exitDy=0;entryX=0.5;entryY=1;entryDx=0;entryDy=0;" parent="13" source="20" target="19" edge="1"><mxGeometry width="160" relative="1" as="geometry"><mxPoint x="30" y="220" as="sourcePoint"/><mxPoint x="210" y="230" as="targetPoint"/></mxGeometry></mxCell><mxCell id="39" value="Imports&amp;nbsp;" style="endArrow=open;startArrow=none;endFill=0;startFill=0;endSize=8;html=1;verticalAlign=bottom;dashed=1;labelBackgroundColor=none;entryX=0.5;entryY=1;entryDx=0;entryDy=0;entryPerimeter=0;exitX=0.618;exitY=0.091;exitDx=0;exitDy=0;exitPerimeter=0;" parent="1" source="13" target="7" edge="1"><mxGeometry width="160" relative="1" as="geometry"><mxPoint x="220" y="490" as="sourcePoint"/><mxPoint x="380" y="490" as="targetPoint"/></mxGeometry></mxCell><mxCell id="42" value="Tests" style="shape=folder;fontStyle=1;tabWidth=110;tabHeight=30;tabPosition=left;html=1;boundedLbl=1;labelInHeader=1;container=1;collapsible=0;recursiveResize=0;" parent="1" vertex="1"><mxGeometry x="-350" y="190" width="160" height="440" as="geometry"/></mxCell><mxCell id="43" value="Test _business_object" style="html=1;" parent="42" vertex="1"><mxGeometry width="120" height="80" relative="1" as="geometry"><mxPoint x="20" y="50" as="offset"/></mxGeometry></mxCell><mxCell id="44" value="Test_dao" style="html=1;" parent="42" vertex="1"><mxGeometry x="20" y="180" width="120" height="80" as="geometry"/></mxCell><mxCell id="69" value="Test_regle_generation" style="html=1;" parent="42" vertex="1"><mxGeometry x="20" y="310" width="120" height="80" as="geometry"/></mxCell><mxCell id="45" value="Factory" style="shape=folder;fontStyle=1;tabWidth=110;tabHeight=30;tabPosition=left;html=1;boundedLbl=1;labelInHeader=1;container=1;collapsible=0;recursiveResize=0;" parent="1" vertex="1"><mxGeometry x="500" y="70" width="290" height="280" as="geometry"/></mxCell><mxCell id="54" value="Utils" style="shape=folder;fontStyle=1;tabWidth=110;tabHeight=30;tabPosition=left;html=1;boundedLbl=1;labelInHeader=1;container=1;collapsible=0;recursiveResize=0;" parent="1" vertex="1"><mxGeometry x="490" y="620" width="330" height="230" as="geometry"/></mxCell><mxCell id="65" value="Imports" style="endArrow=open;startArrow=none;endFill=0;startFill=0;endSize=8;html=1;verticalAlign=bottom;dashed=1;labelBackgroundColor=none;entryX=0;entryY=0;entryDx=330;entryDy=180;entryPerimeter=0;" parent="1" source="45" target="7" edge="1"><mxGeometry width="160" relative="1" as="geometry"><mxPoint x="240" y="500" as="sourcePoint"/><mxPoint x="400" y="500" as="targetPoint"/></mxGeometry></mxCell><mxCell id="66" value="Imports" style="endArrow=open;startArrow=none;endFill=0;startFill=0;endSize=8;html=1;verticalAlign=bottom;dashed=1;labelBackgroundColor=none;entryX=0;entryY=0;entryDx=0;entryDy=180;entryPerimeter=0;exitX=1.006;exitY=0.573;exitDx=0;exitDy=0;exitPerimeter=0;" parent="1" source="42" target="7" edge="1"><mxGeometry width="160" relative="1" as="geometry"><mxPoint x="-180" y="390" as="sourcePoint"/><mxPoint x="-50" y="350" as="targetPoint"/></mxGeometry></mxCell><mxCell id="68" value="Imports" style="endArrow=open;startArrow=none;endFill=0;startFill=0;endSize=8;html=1;verticalAlign=bottom;dashed=1;labelBackgroundColor=none;exitX=1.021;exitY=0.602;exitDx=0;exitDy=0;exitPerimeter=0;entryX=-0.008;entryY=0.507;entryDx=0;entryDy=0;entryPerimeter=0;" parent="1" source="42" target="13" edge="1"><mxGeometry width="160" relative="1" as="geometry"><mxPoint x="-120" y="460" as="sourcePoint"/><mxPoint x="40" y="460" as="targetPoint"/></mxGeometry></mxCell><mxCell id="70" value="Imports" style="endArrow=open;startArrow=none;endFill=0;startFill=0;endSize=8;html=1;verticalAlign=bottom;dashed=1;labelBackgroundColor=none;exitX=1.006;exitY=0.613;exitDx=0;exitDy=0;exitPerimeter=0;entryX=0.5;entryY=1;entryDx=0;entryDy=0;entryPerimeter=0;" edge="1" parent="1" source="13" target="45"><mxGeometry width="160" relative="1" as="geometry"><mxPoint x="400" y="780" as="sourcePoint"/><mxPoint x="560" y="780" as="targetPoint"/></mxGeometry></mxCell></root></mxGraphModel></diagram></mxfile>